<svg width="16" height="16" viewBox="0 0 16 16" fill="none" xmlns="http://www.w3.org/2000/svg">
<path d="M0.792159 7.2936L1.79216 6.2936C1.96176 6.12419 2.18657 6.02135 2.42564 6.00379C2.66471 5.98624 2.90214 6.05515 3.09466 6.19797L6.19716 3.09547C6.05426 2.90302 5.98524 2.66564 6.00268 2.42657C6.02011 2.18751 6.12285 1.96265 6.29216 1.79297L7.29216 0.792974C7.38502 0.700091 7.49527 0.626411 7.61661 0.576142C7.73795 0.525873 7.86801 0.5 7.99935 0.5C8.13069 0.5 8.26074 0.525873 8.38208 0.576142C8.50342 0.626411 8.61367 0.700091 8.70653 0.792974L12.7065 4.79297C12.7994 4.88584 12.8731 4.99609 12.9234 5.11743C12.9736 5.23877 12.9995 5.36882 12.9995 5.50016C12.9995 5.6315 12.9736 5.76156 12.9234 5.8829C12.8731 6.00424 12.7994 6.11449 12.7065 6.20735L11.7065 7.20735C11.5369 7.3765 11.3122 7.47913 11.0732 7.49656C10.8343 7.514 10.5971 7.44508 10.4047 7.30235L9.95653 7.75047L14.0428 11.8367C14.3143 12.1336 14.4608 12.5238 14.4518 12.926C14.4428 13.3282 14.279 13.7115 13.9945 13.9959C13.71 14.2804 13.3268 14.4442 12.9246 14.4532C12.5224 14.4622 12.1322 14.3157 11.8353 14.0442L7.74966 9.95797L7.30154 10.4055C7.44444 10.5979 7.51345 10.8353 7.49602 11.0744C7.47858 11.3134 7.37585 11.5383 7.20653 11.708L6.20653 12.708C6.11367 12.8009 6.00342 12.8745 5.88208 12.9248C5.76074 12.9751 5.63069 13.0009 5.49935 13.0009C5.36801 13.0009 5.23795 12.9751 5.11661 12.9248C4.99527 12.8745 4.88502 12.8009 4.79216 12.708L0.792159 8.70797C0.699276 8.61511 0.625597 8.50486 0.575328 8.38352C0.525059 8.26218 0.499186 8.13213 0.499186 8.00079C0.499186 7.86945 0.525059 7.73939 0.575328 7.61805C0.625597 7.49671 0.699276 7.38646 0.792159 7.2936ZM10.9997 6.50047L11.9997 5.50047L7.99966 1.50047L6.99966 2.50047L10.9997 6.50047ZM12.5422 13.3367C12.6476 13.4415 12.7901 13.5003 12.9387 13.5003C13.0873 13.5003 13.2299 13.4415 13.3353 13.3367C13.4399 13.2314 13.4985 13.0889 13.4985 12.9405C13.4985 12.792 13.4399 12.6496 13.3353 12.5442L9.24966 8.45797L8.45653 9.25047L12.5422 13.3367ZM9.68716 6.60422L6.89591 3.81297L3.81216 6.89672L6.60278 9.68797L9.68716 6.60422ZM5.49966 12.0005L6.49966 11.0005L6.24966 10.7505L2.74966 7.25047L2.49966 7.00047L1.49966 8.00047L5.49966 12.0005Z" fill="#1B84FF"/>
</svg>
